<?xml version="1.0" encoding="us-ascii" standalone="no"?><svg xmlns="http://www.w3.org/2000/svg" xmlns:xlink="http://www.w3.org/1999/xlink" contentStyleType="text/css" height="487px" preserveAspectRatio="none" style="width:857px;height:487px;background:#FFFFFF;" version="1.1" viewBox="0 0 857 487" width="857px" zoomAndPan="magnify"><defs/><g><rect fill="#ADD8E6" height="475.1504" style="stroke:#181818;stroke-width:0.5;" width="840.5" x="11" y="6"/><text fill="#000000" font-family="sans-serif" font-size="13" font-weight="bold" lengthAdjust="spacing" textLength="4" x="429.25" y="18.5684">&#160;</text><rect fill="#90EE90" height="454.8398" style="stroke:#181818;stroke-width:0.5;" width="127" x="134" y="26.3105"/><text fill="#000000" font-family="sans-serif" font-size="13" font-weight="bold" lengthAdjust="spacing" textLength="4" x="195.5" y="38.8789">&#160;</text><line style="stroke:#181818;stroke-width:0.5;stroke-dasharray:5.0,5.0;" x1="71.5" x2="71.5" y1="108.1094" y2="412.6621"/><line style="stroke:#181818;stroke-width:0.5;stroke-dasharray:5.0,5.0;" x1="197.5" x2="197.5" y1="108.1094" y2="412.6621"/><line style="stroke:#181818;stroke-width:0.5;stroke-dasharray:5.0,5.0;" x1="310.5" x2="310.5" y1="108.1094" y2="412.6621"/><line style="stroke:#181818;stroke-width:0.5;stroke-dasharray:5.0,5.0;" x1="456.5" x2="456.5" y1="108.1094" y2="412.6621"/><line style="stroke:#181818;stroke-width:0.5;stroke-dasharray:5.0,5.0;" x1="603.5" x2="603.5" y1="108.1094" y2="412.6621"/><line style="stroke:#181818;stroke-width:0.5;stroke-dasharray:5.0,5.0;" x1="809.5" x2="809.5" y1="108.1094" y2="412.6621"/><rect fill="#E2E2F0" height="30.4883" rx="2.5" ry="2.5" style="stroke:#181818;stroke-width:0.5;" width="113" x="15" y="76.6211"/><text fill="#000000" font-family="sans-serif" font-size="14" lengthAdjust="spacing" textLength="99" x="22" y="97.1563">Hotwheels Car</text><text fill="#000000" font-family="sans-serif" font-size="14" lengthAdjust="spacing" textLength="113" x="138" y="105.1563">Arduino UNO R4</text><path d="M177,63.6211 L177,87.6211 M177,75.6211 L194,75.6211 " fill="none" style="stroke:#181818;stroke-width:0.5;"/><ellipse cx="206" cy="75.6211" fill="#E2E2F0" rx="12" ry="12" style="stroke:#181818;stroke-width:0.5;"/><path d="M282,81.6211 L339,81.6211 C344,81.6211 344,94.8652 344,94.8652 C344,94.8652 344,108.1094 339,108.1094 L282,108.1094 C277,108.1094 277,94.8652 277,94.8652 C277,94.8652 277,81.6211 282,81.6211 " fill="#E2E2F0" style="stroke:#181818;stroke-width:0.5;"/><path d="M339,81.6211 C334,81.6211 334,94.8652 334,94.8652 C334,108.1094 339,108.1094 339,108.1094 " fill="none" style="stroke:#181818;stroke-width:0.5;"/><text fill="#000000" font-family="sans-serif" font-size="14" lengthAdjust="spacing" textLength="47" x="282" y="100.1563">Feeder</text><text fill="#000000" font-family="sans-serif" font-size="14" lengthAdjust="spacing" textLength="88" x="409.5" y="105.1563">Pantry Cloud</text><path d="M438.5,55.6211 C438.5,45.6211 456.5,45.6211 456.5,45.6211 C456.5,45.6211 474.5,45.6211 474.5,55.6211 L474.5,81.6211 C474.5,91.6211 456.5,91.6211 456.5,91.6211 C456.5,91.6211 438.5,91.6211 438.5,81.6211 L438.5,55.6211 " fill="#E2E2F0" style="stroke:#181818;stroke-width:1.5;"/><path d="M438.5,55.6211 C438.5,65.6211 456.5,65.6211 456.5,65.6211 C456.5,65.6211 474.5,65.6211 474.5,55.6211 " fill="none" style="stroke:#181818;stroke-width:1.5;"/><text fill="#000000" font-family="sans-serif" font-size="14" lengthAdjust="spacing" textLength="61" x="570" y="105.1563">UI Server</text><ellipse cx="603.5" cy="75.6211" fill="#E2E2F0" rx="12" ry="12" style="stroke:#181818;stroke-width:0.5;"/><polygon fill="#181818" points="599.5,63.6211,605.5,58.6211,603.5,63.6211,605.5,68.6211,599.5,63.6211" style="stroke:#181818;stroke-width:1.0;"/><rect fill="#E2E2F0" height="30.4883" rx="2.5" ry="2.5" style="stroke:#181818;stroke-width:0.5;" width="76" x="771.5" y="76.6211"/><text fill="#000000" font-family="sans-serif" font-size="14" lengthAdjust="spacing" textLength="62" x="778.5" y="97.1563">Smart TV</text><rect fill="#E2E2F0" height="30.4883" rx="2.5" ry="2.5" style="stroke:#181818;stroke-width:0.5;" width="113" x="15" y="412.6621"/><text fill="#000000" font-family="sans-serif" font-size="14" lengthAdjust="spacing" textLength="99" x="22" y="433.1973">Hotwheels Car</text><text fill="#000000" font-family="sans-serif" font-size="14" lengthAdjust="spacing" textLength="113" x="138" y="458.1973">Arduino UNO R4</text><path d="M177,416.6621 L177,440.6621 M177,428.6621 L194,428.6621 " fill="none" style="stroke:#181818;stroke-width:0.5;"/><ellipse cx="206" cy="428.6621" fill="#E2E2F0" rx="12" ry="12" style="stroke:#181818;stroke-width:0.5;"/><path d="M282,412.6621 L339,412.6621 C344,412.6621 344,425.9063 344,425.9063 C344,425.9063 344,439.1504 339,439.1504 L282,439.1504 C277,439.1504 277,425.9063 277,425.9063 C277,425.9063 277,412.6621 282,412.6621 " fill="#E2E2F0" style="stroke:#181818;stroke-width:0.5;"/><path d="M339,412.6621 C334,412.6621 334,425.9063 334,425.9063 C334,439.1504 339,439.1504 339,439.1504 " fill="none" style="stroke:#181818;stroke-width:0.5;"/><text fill="#000000" font-family="sans-serif" font-size="14" lengthAdjust="spacing" textLength="47" x="282" y="431.1973">Feeder</text><text fill="#000000" font-family="sans-serif" font-size="14" lengthAdjust="spacing" textLength="88" x="409.5" y="472.1973">Pantry Cloud</text><path d="M438.5,422.6621 C438.5,412.6621 456.5,412.6621 456.5,412.6621 C456.5,412.6621 474.5,412.6621 474.5,422.6621 L474.5,448.6621 C474.5,458.6621 456.5,458.6621 456.5,458.6621 C456.5,458.6621 438.5,458.6621 438.5,448.6621 L438.5,422.6621 " fill="#E2E2F0" style="stroke:#181818;stroke-width:1.5;"/><path d="M438.5,422.6621 C438.5,432.6621 456.5,432.6621 456.5,432.6621 C456.5,432.6621 474.5,432.6621 474.5,422.6621 " fill="none" style="stroke:#181818;stroke-width:1.5;"/><text fill="#000000" font-family="sans-serif" font-size="14" lengthAdjust="spacing" textLength="61" x="570" y="458.1973">UI Server</text><ellipse cx="603.5" cy="428.6621" fill="#E2E2F0" rx="12" ry="12" style="stroke:#181818;stroke-width:0.5;"/><polygon fill="#181818" points="599.5,416.6621,605.5,411.6621,603.5,416.6621,605.5,421.6621,599.5,416.6621" style="stroke:#181818;stroke-width:1.0;"/><rect fill="#E2E2F0" height="30.4883" rx="2.5" ry="2.5" style="stroke:#181818;stroke-width:0.5;" width="76" x="771.5" y="412.6621"/><text fill="#000000" font-family="sans-serif" font-size="14" lengthAdjust="spacing" textLength="62" x="778.5" y="433.1973">Smart TV</text><polygon fill="#FF0000" points="186.2507,151.9017,195.5,157.4199,184.9966,159.8028,189.5742,156.4793" style="stroke:#FF0000;stroke-width:1.0;"/><line style="stroke:#FF0000;stroke-width:1.0;" x1="71.5" x2="195.5" y1="137.4199" y2="157.4199"/><text fill="#000000" font-family="sans-serif" font-size="13" lengthAdjust="spacing" textLength="64" x="78.5" y="132.6777">via Sensor</text><polygon fill="#FF0000" points="299.3502,201.0489,308.5,206.7305,297.9559,208.9264,302.5918,205.6848" style="stroke:#FF0000;stroke-width:1.0;"/><line style="stroke:#FF0000;stroke-width:1.0;" x1="197.5" x2="308.5" y1="186.7305" y2="206.7305"/><text fill="#000000" font-family="sans-serif" font-size="13" lengthAdjust="spacing" textLength="67" x="204.5" y="181.9883">websocket</text><polygon fill="#FF0000" points="445.1354,250.7208,454.5,256.041,444.0497,258.6468,448.5555,255.2267" style="stroke:#FF0000;stroke-width:1.0;"/><line style="stroke:#FF0000;stroke-width:1.0;" x1="310.5" x2="454.5" y1="236.041" y2="256.041"/><text fill="#000000" font-family="sans-serif" font-size="13" lengthAdjust="spacing" textLength="122" x="317.5" y="231.2988">store speed as json</text><polygon fill="#008000" points="466.8695,300.04,457.5,305.3516,467.948,307.9669,463.4452,304.5427" style="stroke:#008000;stroke-width:1.0;"/><line style="stroke:#008000;stroke-width:1.0;" x1="602.5" x2="456.5" y1="285.3516" y2="305.3516"/><text fill="#000000" font-family="sans-serif" font-size="13" lengthAdjust="spacing" textLength="123" x="473.5" y="280.6094">poll for speed entry</text><polygon fill="#008000" points="798.4458,388.8293,807.5,394.6621,796.9209,396.6826,801.61,393.5184" style="stroke:#008000;stroke-width:1.0;"/><line style="stroke:#008000;stroke-width:1.0;" x1="603.5" x2="807.5" y1="354.6621" y2="394.6621"/><text fill="#000000" font-family="sans-serif" font-size="13" lengthAdjust="spacing" textLength="182" x="610.5" y="349.9199">Push speed to browser on TV</text><!--SRC=[RP1FJyCm3CNl-HIcky012Q6TTa22IS0a11DhUq4SqiQqXIukJh82dnxtppOgSKhoydxsiqyQriLMWqVw0Sy1bShe2s3sK1Mblwb5Q3JxAgyQRJr4z-JR4h5siDGSWNPmKFw2TuneHGZMQFw6w9fDg2n1ylW4p_EU6oM5re2GwZDWG8Xk4GqEbOUhCjhhJ3lvMqi4gRQiAPZUCGWg9pceXYXPmGPvD_B9QdXC9zXivGLnsblYzD1V7KSxVvancjUhqykBitrEMC2kqbBUEcAr5oVE8QyOMymSvH_eGOtQn3UEiG3dYH5S8vukpBiZg_QXEwJejZY15j1GNSCRyOXXlu3_eBb0SIfTri6LeziJP4oj4oVPRlXV]--></g></svg>